# Blender v2.92.0 OBJ File: ''
# www.blender.org
mtllib NotAsFunny.mtl
o Cube
v 1.000000 5.267436 -1.000000
v 0.811515 3.267436 -0.811515
v -1.000000 5.267436 -1.000000
v -0.811515 3.267436 -0.811515
v -1.000000 3.267436 -1.000000
v 1.000000 3.267436 -1.000000
v -0.811515 1.341269 -1.271290
v 0.811515 1.341269 -1.271290
v -0.906591 0.726834 -1.470078
v 0.906591 0.726834 -1.470078
v -0.906591 -1.571153 -1.470078
v 0.906591 -1.571153 -1.470078
v -0.780005 -2.332376 -1.221927
v 0.780005 -2.332376 -1.221927
v 0.780005 -6.688987 -1.765691
v -0.780005 -6.688987 -1.765691
v 0.780005 -6.688987 -0.543764
v -0.780005 -6.688987 -0.543764
v -0.811515 2.451543 -1.041403
v 0.811515 2.451543 -1.041403
v 0.811515 2.972756 -6.488707
v -0.811515 2.972756 -6.488707
v 0.811515 3.584617 -6.513745
v -0.811515 3.584617 -6.513745
v 1.000000 5.267436 1.000000
v 0.811515 3.267436 0.811515
v -1.000000 5.267436 1.000000
v -0.811515 3.267436 0.811515
v -1.000000 3.267436 1.000000
v 1.000000 3.267436 1.000000
v -0.811515 1.341269 1.271290
v 0.811515 1.341269 1.271290
v -0.906591 0.726834 1.470078
v 0.906591 0.726834 1.470078
v -0.906591 -1.571153 1.470078
v 0.906591 -1.571153 1.470078
v -0.780005 -2.332376 1.221927
v 0.780005 -2.332376 1.221927
v -1.000000 3.267436 0.000000
v 1.000000 5.267436 0.000000
v -1.000000 5.267436 0.000000
v 1.000000 3.267436 0.000000
v -0.811515 3.267436 0.000000
v 0.811515 3.267436 0.000000
v -0.811515 1.341269 0.000000
v 0.811515 1.341269 0.000000
v -0.906591 0.726834 0.000000
v 0.906591 0.726834 0.000000
v -0.906591 -1.571153 0.000000
v 0.906591 -1.571153 0.000000
v -0.780005 -2.332376 0.000000
v 0.780005 -2.332376 0.000000
v 0.780005 -6.688987 1.765691
v -0.780005 -6.688987 1.765691
v 0.780005 -6.688987 0.543764
v -0.780005 -6.688987 0.543764
v -0.811515 2.451543 0.000000
v 0.811515 2.451543 0.000000
v -0.811515 2.451543 1.041403
v 0.811515 2.451543 1.041403
v 0.811515 2.972756 6.488707
v -0.811515 2.972756 6.488707
v 0.811515 3.584617 6.513745
v -0.811515 3.584617 6.513745
vt 0.375000 0.125000
vt 0.625000 0.125000
vt 0.625000 0.250000
vt 0.375000 0.250000
vt 0.148561 0.523561
vt 0.351439 0.523561
vt 0.351439 0.523561
vt 0.148561 0.523561
vt 0.625000 0.500000
vt 0.375000 0.500000
vt 0.125000 0.500000
vt 0.351439 0.625000
vt 0.375000 0.625000
vt 0.148561 0.625000
vt 0.148561 0.523561
vt 0.148561 0.625000
vt 0.148561 0.523561
vt 0.148561 0.625000
vt 0.351439 0.523561
vt 0.351439 0.523561
vt 0.351439 0.523561
vt 0.148561 0.523561
vt 0.148561 0.625000
vt 0.148561 0.523561
vt 0.148561 0.625000
vt 0.351439 0.523561
vt 0.351439 0.625000
vt 0.351439 0.625000
vt 0.351439 0.523561
vt 0.148561 0.523561
vt 0.351439 0.625000
vt 0.351439 0.625000
vt 0.351439 0.625000
vt 0.148561 0.625000
vt 0.125000 0.625000
vt 0.625000 0.625000
vt 0.875000 0.500000
vt 0.875000 0.625000
vt 0.351439 0.625000
vt 0.148561 0.625000
vt 0.351439 0.523561
vt 0.148561 0.523561
vt 0.351439 0.523561
vt 0.148561 0.523561
vt 0.375000 0.250000
vt 0.625000 0.250000
vt 0.148561 0.523561
vt 0.148561 0.523561
vt 0.351439 0.523561
vt 0.351439 0.523561
vt 0.375000 0.500000
vt 0.625000 0.500000
vt 0.125000 0.500000
vt 0.148561 0.523561
vt 0.148561 0.523561
vt 0.351439 0.523561
vt 0.351439 0.523561
vt 0.148561 0.523561
vt 0.351439 0.523561
vt 0.148561 0.523561
vt 0.351439 0.523561
vt 0.148561 0.523561
vt 0.351439 0.523561
vt 0.875000 0.500000
vt 0.148561 0.625000
vt 0.351439 0.625000
vt 0.148561 0.523561
vt 0.351439 0.523561
vt 0.148561 0.523561
vt 0.351439 0.523561
vn -1.0000 0.0000 0.0000
vn 0.0000 0.2712 -0.9625
vn 0.0000 0.0000 -1.0000
vn 0.0000 -1.0000 0.0000
vn -0.9882 0.1529 0.0000
vn 0.0000 0.3078 -0.9514
vn -0.9865 -0.1640 0.0000
vn 0.0000 -0.3099 -0.9508
vn 0.9865 -0.1640 0.0000
vn 0.0000 0.1239 -0.9923
vn 0.9882 0.1529 0.0000
vn 1.0000 0.0000 0.0000
vn 0.0000 1.0000 0.0000
vn 0.0000 -0.1239 0.9923
vn 0.0000 0.9792 0.2028
vn 0.0000 -0.0409 -0.9992
vn 0.0000 -0.9544 -0.2984
vn 0.0000 0.2712 0.9625
vn 0.0000 0.0000 1.0000
vn 0.0000 0.3078 0.9514
vn 0.0000 -0.3099 0.9508
vn 0.0000 0.1239 0.9923
vn 0.0000 -0.1239 -0.9923
vn 0.0000 0.9792 -0.2028
vn 0.0000 -0.0409 0.9992
vn 0.0000 -0.9544 0.2984
usemtl Material
s off
f 39/1/1 41/2/1 3/3/1 5/4/1
f 4/5/2 2/6/2 20/7/2 19/8/2
f 5/4/3 3/3/3 1/9/3 6/10/3
f 2/6/4 4/5/4 5/11/4 6/10/4
f 44/12/4 2/6/4 6/10/4 42/13/4
f 57/14/1 19/8/1 7/15/1 45/16/1
f 45/16/5 7/15/5 9/17/5 47/18/5
f 7/15/6 8/19/6 10/20/6 9/17/6
f 9/17/3 10/20/3 12/21/3 11/22/3
f 47/18/1 9/17/1 11/22/1 49/23/1
f 49/23/7 11/22/7 13/24/7 51/25/7
f 11/22/8 12/21/8 14/26/8 13/24/8
f 12/21/9 50/27/9 52/28/9 14/26/9
f 13/24/10 14/26/10 15/29/10 16/30/10
f 8/19/11 46/31/11 48/32/11 10/20/11
f 10/20/12 48/32/12 50/27/12 12/21/12
f 20/7/12 58/33/12 46/31/12 8/19/12
f 4/5/4 43/34/4 39/35/4 5/11/4
f 6/10/12 1/9/12 40/36/12 42/13/12
f 1/9/13 3/37/13 41/38/13 40/36/13
f 16/30/4 15/29/4 17/39/4 18/40/4
f 14/26/12 52/28/12 17/39/12 15/29/12
f 51/25/1 13/24/1 16/30/1 18/40/1
f 17/39/14 52/28/14 51/25/14 18/40/14
f 43/34/1 4/5/1 19/8/1 57/14/1
f 2/6/12 44/12/12 58/33/12 20/7/12
f 19/8/15 20/7/15 23/41/15 24/42/15
f 24/42/16 23/41/16 21/43/16 22/44/16
f 20/7/12 8/19/12 21/43/12 23/41/12
f 8/19/17 7/15/17 22/44/17 21/43/17
f 7/15/1 19/8/1 24/42/1 22/44/1
f 39/1/1 29/45/1 27/46/1 41/2/1
f 28/47/18 59/48/18 60/49/18 26/50/18
f 29/45/19 30/51/19 25/52/19 27/46/19
f 26/50/4 30/51/4 29/53/4 28/47/4
f 44/12/4 42/13/4 30/51/4 26/50/4
f 57/14/1 45/16/1 31/54/1 59/48/1
f 45/16/5 47/18/5 33/55/5 31/54/5
f 31/54/20 33/55/20 34/56/20 32/57/20
f 33/55/19 35/58/19 36/59/19 34/56/19
f 47/18/1 49/23/1 35/58/1 33/55/1
f 49/23/7 51/25/7 37/60/7 35/58/7
f 35/58/21 37/60/21 38/61/21 36/59/21
f 36/59/9 38/61/9 52/28/9 50/27/9
f 37/60/22 54/62/22 53/63/22 38/61/22
f 32/57/11 34/56/11 48/32/11 46/31/11
f 34/56/12 36/59/12 50/27/12 48/32/12
f 60/49/12 32/57/12 46/31/12 58/33/12
f 28/47/4 29/53/4 39/35/4 43/34/4
f 30/51/12 42/13/12 40/36/12 25/52/12
f 25/52/13 40/36/13 41/38/13 27/64/13
f 54/62/4 56/65/4 55/66/4 53/63/4
f 38/61/12 53/63/12 55/66/12 52/28/12
f 51/25/1 56/65/1 54/62/1 37/60/1
f 55/66/23 56/65/23 51/25/23 52/28/23
f 43/34/1 57/14/1 59/48/1 28/47/1
f 26/50/12 60/49/12 58/33/12 44/12/12
f 59/48/24 64/67/24 63/68/24 60/49/24
f 64/67/25 62/69/25 61/70/25 63/68/25
f 60/49/12 63/68/12 61/70/12 32/57/12
f 32/57/26 61/70/26 62/69/26 31/54/26
f 31/54/1 62/69/1 64/67/1 59/48/1
